<?xml version="1.0" encoding="iso-8859-1"?>
<!-- Generator: Adobe Illustrator 19.0.0, SVG Export Plug-In . SVG Version: 6.00 Build 0)  -->
<svg version="1.1" id="Layer_1" xmlns="http://www.w3.org/2000/svg" xmlns:xlink="http://www.w3.org/1999/xlink" x="0px" y="0px"
	 viewBox="0 0 512 512" style="enable-background:new 0 0 512 512;" xml:space="preserve">
<g>
	<g>
		<path d="M361.739,306.087c-9.217,0-16.696,7.479-16.696,16.696c0,49.097-39.946,89.044-89.043,89.044
			s-89.043-39.946-89.043-89.044c0-9.217-7.479-16.696-16.696-16.696c-9.217,0-16.696,7.479-16.696,16.696
			c0,67.511,54.924,122.435,122.435,122.435c67.511,0,122.435-54.924,122.435-122.435
			C378.435,313.565,370.956,306.087,361.739,306.087z"/>
	</g>
</g>
<g>
	<g>
		<path d="M183.652,133.565c-27.619,0-50.087,22.468-50.087,50.087c0,21.737,14,40.095,33.391,47.01v19.772
			c0,9.22,7.475,16.696,16.696,16.696c9.22,0,16.696-7.475,16.696-16.696v-19.772c19.391-6.914,33.391-25.274,33.391-47.01
			C233.739,156.033,211.271,133.565,183.652,133.565z M183.652,200.348c-9.22,0-16.696-7.475-16.696-16.696
			c0-9.22,7.475-16.696,16.696-16.696c9.22,0,16.696,7.475,16.696,16.696C200.348,192.873,192.873,200.348,183.652,200.348z"/>
	</g>
</g>
<g>
	<g>
		<path d="M328.348,133.565c-27.619,0-50.087,22.468-50.087,50.087c0,21.737,14,40.095,33.391,47.01v19.772
			c0,9.22,7.475,16.696,16.696,16.696s16.696-7.475,16.696-16.696v-19.772c19.391-6.914,33.391-25.274,33.391-47.01
			C378.435,156.033,355.967,133.565,328.348,133.565z M328.348,200.348c-9.22,0-16.696-7.475-16.696-16.696
			c0-9.22,7.475-16.696,16.696-16.696s16.696,7.475,16.696,16.696C345.043,192.873,337.568,200.348,328.348,200.348z"/>
	</g>
</g>
<g>
	<g>
		<circle cx="256" cy="311.652" r="44.522"/>
	</g>
</g>
<g>
	<g>
		<path d="M512,83.478C512,37.375,474.626,0,428.522,0c-26.979,0-50.898,12.853-66.158,32.71C332.052,12.07,295.437,0,256.001,0H256
			c-39.437,0-76.052,12.07-106.364,32.71C134.377,12.853,110.457,0,83.478,0C37.374,0,0,37.375,0,83.478
			c0,18.068,5.8,34.749,15.556,48.412C5.915,142.712,0,156.921,0,172.522c0,33.755,27.468,61.217,61.217,61.217
			c1.879,0,3.73-0.116,5.565-0.282v89.325C66.783,427.285,151.497,512,256,512h0.001c104.501,0,189.216-84.715,189.216-189.217
			v-89.325c1.835,0.167,3.686,0.282,5.565,0.282c33.75,0,61.217-27.462,61.217-61.217c0-15.6-5.915-29.81-15.556-40.632
			C506.2,118.227,512,101.546,512,83.478z M66.783,199.785c-1.799,0.367-3.66,0.563-5.565,0.563
			c-15.342,0-27.826-12.484-27.826-27.826c0-8.642,3.859-14.782,7.092-18.419c10.375-11.641,11.31-28.914,2.249-41.609
			c-6.114-8.565-9.342-18.598-9.342-29.016c0-27.619,22.468-50.087,50.087-50.087c16.539,0,31.116,8.152,40.242,20.548
			c-35.127,34.353-56.938,82.265-56.938,135.278V199.785z M411.826,322.783c0,85.924-69.903,155.826-155.826,155.826
			s-155.826-69.902-155.826-155.826V189.217c0-85.924,69.902-155.826,155.826-155.826s155.826,69.902,155.826,155.826V322.783z
			 M471.516,154.103c3.233,3.636,7.092,9.777,7.092,18.419c0,15.342-12.484,27.826-27.826,27.826c-1.906,0-3.767-0.196-5.565-0.563
			v-10.567c0-53.013-21.811-100.925-56.938-135.278c9.126-12.396,23.703-20.548,40.242-20.548c27.619,0,50.087,22.468,50.087,50.087
			c0,10.418-3.228,20.451-9.343,29.016C460.207,125.191,461.142,142.462,471.516,154.103z"/>
	</g>
</g>
<g>
</g>
<g>
</g>
<g>
</g>
<g>
</g>
<g>
</g>
<g>
</g>
<g>
</g>
<g>
</g>
<g>
</g>
<g>
</g>
<g>
</g>
<g>
</g>
<g>
</g>
<g>
</g>
<g>
</g>
</svg>
